<?xml version="1.0" encoding="utf-8"?>
<!-- Generator: Adobe Illustrator 16.0.0, SVG Export Plug-In . SVG Version: 6.00 Build 0)  -->
<!DOCTYPE svg PUBLIC "-//W3C//DTD SVG 1.1//EN" "http://www.w3.org/Graphics/SVG/1.1/DTD/svg11.dtd">
<svg version="1.1" id="Layer_1" xmlns="http://www.w3.org/2000/svg" xmlns:xlink="http://www.w3.org/1999/xlink" x="0px" y="0px"
	 width="53.93px" height="49.691px" viewBox="23.821 10.588 53.93 49.691" enable-background="new 23.821 10.588 53.93 49.691"
	 xml:space="preserve">
<path d="M77.134,20.712c0.823,0.823,0.823,2.222,0,3.045l-8.148,8.148l0,0l-0.247,0.247c-0.822,0.823-2.222,0.823-3.045,0
	l-0.082-0.329l0,0l-3.045-3.045l-11.441,11.44l4.939,4.938c0.493,0.494,0.822,1.235,0.822,1.893c0,0.659-0.247,1.399-0.822,1.893
	L45.529,59.478c-1.07,1.069-2.798,1.069-3.786,0l-0.247-0.247c-1.07-1.07-1.07-2.799,0-3.786l8.312-8.312l-6.173-6.173l-4.197,4.197
	c0,0,0,0-0.083,0.083c-0.083,0.082-0.165,0.165-0.165,0.247l-10.535,10.37c-1.07,1.07-2.798,1.07-3.786,0l-0.247-0.246
	c-1.07-1.07-1.07-2.799,0-3.786l10.535-10.535c0,0,0,0,0.083-0.083c0.083-0.082,0.165-0.165,0.165-0.247l5.844-5.844
	c0.082-0.083,0.165-0.165,0.247-0.247l13.662-13.663l-2.387-2.387l-6.584,6.584c-0.823,0.823-2.222,0.823-3.045,0l-0.247-0.247
	c-0.823-0.823-0.823-2.222,0-3.045l8.148-8.148l0,0l0.247-0.247c0.823-0.823,2.222-0.823,3.046,0l0.246,0.247l0,0l8.148,8.148
	c0.082,0.082,0.164,0.247,0.247,0.329l1.151,1.152c0,0,0,0,0.083,0.082l3.374,3.375l6.585-6.584c0.823-0.823,2.222-0.823,3.045,0
	L77.134,20.712 M67.175,10.588c-3.128,0-5.597,2.552-5.597,5.597c0,3.045,2.551,5.597,5.597,5.597c3.128,0,5.597-2.551,5.597-5.597
	C72.771,13.14,70.303,10.588,67.175,10.588z"/>
</svg>
