<?xml version="1.0" encoding="utf-8"?>
<!-- Generator: Adobe Illustrator 16.0.0, SVG Export Plug-In . SVG Version: 6.00 Build 0)  -->
<!DOCTYPE svg PUBLIC "-//W3C//DTD SVG 1.1//EN" "http://www.w3.org/Graphics/SVG/1.1/DTD/svg11.dtd">
<svg version="1.1" id="Your_Icon" xmlns="http://www.w3.org/2000/svg" xmlns:xlink="http://www.w3.org/1999/xlink" x="0px" y="0px"
	 width="51.02px" height="59.26px" viewBox="25.787 4.814 51.02 59.26" enable-background="new 25.787 4.814 51.02 59.26"
	 xml:space="preserve">
<g>
	<path d="M40.93,51.848c-4.472,1.199-8.78-0.37-7.394,4.795c1.385,5.166,6.134,8.381,10.607,7.181s6.974-6.359,5.589-11.524
		C48.347,47.133,45.403,50.647,40.93,51.848z"/>
	<path d="M40.062,48.657c8.407-2.255,6.223-5.093,7.149-10.721c0.869-5.277-6.603-21.459-15.165-19.162
		c-8.562,2.297-6.875,19.999-3.539,24.179C32.203,47.587,31.654,50.912,40.062,48.657z"/>
	<path d="M61.662,38.109c-4.473-1.2-7.416-4.714-8.801,0.451c-1.386,5.165,1.116,10.325,5.588,11.524
		c4.473,1.2,9.221-2.015,10.607-7.18C70.441,37.739,66.135,39.308,61.662,38.109z"/>
	<path d="M70.547,5.036C61.985,2.74,54.514,18.921,55.383,24.198c0.926,5.628-1.258,8.465,7.148,10.721
		c8.407,2.255,7.859-1.07,11.557-5.703C77.422,25.036,79.109,7.333,70.547,5.036z"/>
</g>
</svg>
