<?xml version="1.0" encoding="utf-8"?>
<!-- Generator: Adobe Illustrator 16.0.0, SVG Export Plug-In . SVG Version: 6.00 Build 0)  -->
<!DOCTYPE svg PUBLIC "-//W3C//DTD SVG 1.1//EN" "http://www.w3.org/Graphics/SVG/1.1/DTD/svg11.dtd">
<svg version="1.1" id="Layer_1" xmlns="http://www.w3.org/2000/svg" xmlns:xlink="http://www.w3.org/1999/xlink" x="0px" y="0px"
	 width="53.238px" height="43.185px" viewBox="0 0 53.238 43.185" enable-background="new 0 0 53.238 43.185" xml:space="preserve">
<g id="Captions">
</g>
<g id="Layer_7" display="none">
</g>
<g id="Your_Icon" display="none">
	<polygon display="inline" points="24.648,25.559 24.648,43.328 37.628,43.328 55.398,61.098 55.398,7.791 37.631,25.559 	"/>
	<path display="inline" d="M64.192,22.663l-3.143,3.14c4.763,4.765,4.763,12.516,0,17.277l3.143,3.142
		C70.688,39.725,70.688,29.159,64.192,22.663z"/>
	<path display="inline" d="M70.475,16.382l-3.143,3.14c8.227,8.226,8.227,21.612,0,29.84l3.143,3.142
		C80.435,42.544,80.435,26.341,70.475,16.382z"/>
</g>
<g id="Layer_6">
	<path d="M53.238,13.903h-3.41L42.412,0H10.826L3.41,13.903H0v21.293h5.325v7.988h7.097v-7.989h28.396v7.989h7.095v-7.989h5.327
		V13.903L53.238,13.903z M14.018,5.328h25.2l4.574,8.575H9.445L14.018,5.328z M8.872,28.983c-2.45,0-4.433-1.982-4.433-4.433
		c0-2.451,1.984-4.437,4.433-4.437c2.45,0,4.437,1.986,4.437,4.437C13.309,27,11.322,28.983,8.872,28.983z M44.366,28.983
		c-2.453,0-4.437-1.982-4.437-4.433c0-2.451,1.985-4.437,4.437-4.437c2.449,0,4.436,1.986,4.436,4.437
		C48.801,27,46.815,28.983,44.366,28.983z"/>
</g>
<g id="Layer_5" display="none">
	<polygon display="inline" points="24.643,7.792 77.949,34.447 24.643,61.096 38.942,34.447 	"/>
</g>
<g id="Layer_4" display="none">
	<polygon display="inline" points="77.949,34.446 51.235,7.73 51.235,21.087 24.643,21.087 24.643,47.802 51.235,47.802 
		51.235,61.158 	"/>
</g>
</svg>
