<?xml version="1.0" encoding="utf-8"?>
<!-- Generator: Adobe Illustrator 16.0.0, SVG Export Plug-In . SVG Version: 6.00 Build 0)  -->
<!DOCTYPE svg PUBLIC "-//W3C//DTD SVG 1.1//EN" "http://www.w3.org/Graphics/SVG/1.1/DTD/svg11.dtd">
<svg version="1.1" id="Layer_1" xmlns="http://www.w3.org/2000/svg" xmlns:xlink="http://www.w3.org/1999/xlink" x="0px" y="0px"
	 width="39px" height="69.333px" viewBox="12.5 11.5 39 69.333" enable-background="new 12.5 11.5 39 69.333" xml:space="preserve">
<path stroke="#000000" stroke-miterlimit="10" d="M18.018,18.054v17.663c-0.15-0.021-0.303-0.038-0.462-0.038
	c-1.447,0-2.62,0.933-2.62,2.084h3.081v34.403c0,0,1.254,5.733,6.271,5.733h6.271h2.239h6.271c5.018,0,6.271-5.733,6.271-5.733
	V37.764h3.351c0-1.152-1.173-2.084-2.621-2.084c-0.255,0-0.497,0.039-0.729,0.094V18.055c-1.074-4.121-6.745-5.555-6.745-5.555H32.8
	h-2.239h-5.798C24.763,12.499,19.092,13.934,18.018,18.054z M19.451,62.669V38.928h1.074c0,0,5.645,14.155,0,23.741H19.451z
	 M21.69,69.119l2.061-9.676h16.216l2.239,9.676C42.206,69.119,33.338,72.882,21.69,69.119z M43.999,38.928v23.741h-1.075
	c-5.645-9.586,0-23.741,0-23.741H43.999z M43.104,32.477l-2.599,8.96H23.034l-2.509-8.96C30.828,27.459,43.104,32.477,43.104,32.477
	z M43.104,17.515c0,0.941-1.104,1.704-2.464,1.704c-1.362,0-2.465-0.763-2.465-1.704c0-0.939,1.103-1.702,2.465-1.702
	C42,15.812,43.104,16.575,43.104,17.515z M25.453,17.515c0,0.941-1.104,1.704-2.464,1.704s-2.465-0.763-2.465-1.704
	c0-0.939,1.104-1.702,2.465-1.702S25.453,16.575,25.453,17.515z"/>
</svg>
