<?xml version="1.0" encoding="utf-8"?>
<!-- Generator: Adobe Illustrator 16.0.0, SVG Export Plug-In . SVG Version: 6.00 Build 0)  -->
<!DOCTYPE svg PUBLIC "-//W3C//DTD SVG 1.1//EN" "http://www.w3.org/Graphics/SVG/1.1/DTD/svg11.dtd">
<svg version="1.1"
	 id="svg2999" xmlns:rdf="http://www.w3.org/1999/02/22-rdf-syntax-ns#" xmlns:dc="http://purl.org/dc/elements/1.1/" xmlns:svg="http://www.w3.org/2000/svg" xmlns:cc="http://creativecommons.org/ns#"
	 xmlns="http://www.w3.org/2000/svg" xmlns:xlink="http://www.w3.org/1999/xlink" x="0px" y="0px" width="67.214px"
	 height="73.719px" viewBox="13.074 7.54 67.214 73.719" enable-background="new 13.074 7.54 67.214 73.719" xml:space="preserve">
<path id="path3007_1_" d="M46.27,29.787l-3.765-3.306l-7.467,8.505c-1.59,1.811-4.372,1.991-6.183,0.402l0,0
	c-1.811-1.59-1.991-4.373-0.401-6.184l10.357-11.797c1.59-1.811,4.371-1.991,6.182-0.402l0,0L64.94,34.533l7.467-8.504
	c1.589-1.811,4.371-1.992,6.182-0.402l0,0c1.811,1.59,1.992,4.371,0.402,6.183L68.634,43.606c-1.59,1.812-4.372,1.991-6.183,0.401
	l0,0l-0.028-0.024l-6.104-5.358l-7.416,9.977l4.326,3.215h0.001c1.933,1.934,2.655,4.76,1.024,6.955L43.628,73.066
	c-1.632,2.195-4.762,2.656-6.955,1.024l0,0c-2.195-1.631-2.655-4.761-1.024-6.955L43.31,56.83l-3.105-2.309L21.816,79.26
	c-1.632,2.193-4.761,2.654-6.955,1.023l0,0c-2.194-1.631-2.657-4.763-1.024-6.955L46.27,29.787L46.27,29.787z M68.284,9.449
	c4.284,3.185,5.176,9.239,1.991,13.524c-3.185,4.283-9.239,5.176-13.524,1.99c-4.283-3.185-5.175-9.239-1.99-13.523
	S64,6.264,68.284,9.449z"/>
</svg>
