<?xml version="1.0" encoding="utf-8"?>
<!-- Generator: Adobe Illustrator 16.0.0, SVG Export Plug-In . SVG Version: 6.00 Build 0)  -->
<!DOCTYPE svg PUBLIC "-//W3C//DTD SVG 1.1//EN" "http://www.w3.org/Graphics/SVG/1.1/DTD/svg11.dtd">
<svg version="1.1" id="Layer_1" xmlns="http://www.w3.org/2000/svg" xmlns:xlink="http://www.w3.org/1999/xlink" x="0px" y="0px"
	 width="27.562px" height="25.562px" viewBox="286 -0.562 27.562 25.562" enable-background="new 286 -0.562 27.562 25.562"
	 xml:space="preserve">
<path d="M300.605,15.192c0.051,0.505-0.303,0.959-0.807,1.01c-0.505,0.05-0.959-0.304-1.01-0.833
	c-0.05-0.505,0.303-0.959,0.808-1.01C300.101,14.309,300.555,14.688,300.605,15.192z M310.7,8.05l-6.813,6.965l-0.152-0.126
	l-0.176-0.076l4.492-9.337c-1.691-1.464-3.785-2.271-6.007-2.726c0.808-0.076,1.615-0.101,2.397-0.151
	c1.035-0.051,2.02-0.101,2.928-0.202l1.085-0.101c2.297,0.858,3.735,2.095,3.735,3.432C312.215,6.587,311.659,7.369,310.7,8.05z
	 M309.641,7.268l-4.088,5.501l4.567-4.694C309.969,7.798,309.816,7.521,309.641,7.268z M308.354,5.754l-3.584,7.419l4.644-6.233
	C309.061,6.511,308.707,6.107,308.354,5.754z M303.559,15.066c-0.202-0.126-0.479-0.076-0.605,0.126l-0.581,0.959l-1.716-0.075
	c-0.177,0.227-0.429,0.403-0.732,0.453c-0.025,0-0.05,0-0.076,0c-0.328,0.025-0.656-0.075-0.909-0.277
	c-0.101-0.075-0.177-0.15-0.252-0.252l-1.438,0.051l-0.58-0.959c-0.126-0.202-0.404-0.252-0.606-0.126
	c-0.202,0.126-0.277,0.404-0.151,0.605c0,0,0.631,1.086,0.757,1.237c0.126,0.177,0.378,0.177,0.378,0.177l1.464,0.101l-0.126,2.347
	c0,0.051,0,0.076,0.025,0.102c0,0-0.025,0.177,0.101,0.277l0,0l1.236,0.783l0.076,1.893c-0.025,0.252,0.151,0.479,0.404,0.529
	c0.278,0.076,0.555-0.101,0.63-0.379c0-0.05,0.025-0.075,0.025-0.125l-0.075-2.271l0.075,0.05l0.076,1.894
	c-0.025,0.252,0.151,0.479,0.404,0.529c0.277,0.076,0.555-0.102,0.631-0.379c0-0.051,0.025-0.075,0.025-0.126l-0.076-2.271
	c0,0,0-0.203-0.328-0.48c-0.277-0.252-0.732-0.555-0.934-0.706l0.101-1.641l1.817-0.101c0,0,0.252,0,0.379-0.152
	c0.125-0.176,0.781-1.236,0.781-1.236C303.836,15.47,303.76,15.192,303.559,15.066z M295.71,14.789l-6.082-6.663
	c-1.035-0.707-1.641-1.514-1.641-2.397c0-2.625,5.426-4.77,12.139-4.77c2.7,0,5.198,0.354,7.218,0.934
	c-4.543,0.479-11.205,0-15.293,3.66l3.962,9.035l-0.177,0.076L295.71,14.789z M290.536,7.293c-0.151,0.252-0.328,0.504-0.454,0.757
	l4.038,4.417L290.536,7.293z M294.877,12.921l-3.129-7.091c-0.353,0.354-0.681,0.732-0.984,1.136L294.877,12.921z"/>
</svg>
