<?xml version="1.0" encoding="utf-8"?>
<!-- Generator: Adobe Illustrator 16.0.0, SVG Export Plug-In . SVG Version: 6.00 Build 0)  -->
<!DOCTYPE svg PUBLIC "-//W3C//DTD SVG 1.1//EN" "http://www.w3.org/Graphics/SVG/1.1/DTD/svg11.dtd">
<svg version="1.1" id="Layer_1" xmlns="http://www.w3.org/2000/svg" xmlns:xlink="http://www.w3.org/1999/xlink" x="0px" y="0px"
	 width="43px" height="30px" viewBox="0 0 43 30" enable-background="new 0 0 43 30" xml:space="preserve">
<polygon display="none" opacity="0.2" fill="#8EB767" points="43.452,30.666 0.561,30.666 0.549,0 43.44,0 "/>
<circle fill="#8EB767" cx="2.073" cy="1.524" r="1.524"/>
<circle fill="#8EB767" cx="12.545" cy="1.524" r="1.524"/>
<circle fill="#8EB767" cx="23.017" cy="1.524" r="1.524"/>
<circle fill="#8EB767" cx="33.488" cy="1.524" r="1.524"/>
<circle fill="#8EB767" cx="2.073" cy="16.299" r="1.524"/>
<circle fill="#8EB767" cx="12.545" cy="16.299" r="1.524"/>
<circle fill="#8EB767" cx="23.017" cy="16.299" r="1.524"/>
<circle fill="#8EB767" cx="33.488" cy="16.299" r="1.524"/>
<circle fill="#8EB767" cx="8.405" cy="9.262" r="1.524"/>
<circle fill="#8EB767" cx="18.876" cy="9.262" r="1.524"/>
<circle fill="#8EB767" cx="29.349" cy="9.262" r="1.524"/>
<circle fill="#8EB767" cx="39.82" cy="9.262" r="1.524"/>
<circle fill="#8EB767" cx="8.405" cy="24.035" r="1.524"/>
<circle fill="#8EB767" cx="18.876" cy="24.035" r="1.524"/>
<circle fill="#8EB767" cx="29.349" cy="24.035" r="1.524"/>
<circle fill="#8EB767" cx="39.82" cy="24.035" r="1.524"/>
</svg>
